<svg aria-hidden="true" style="position: absolute; width: 0; height: 0; overflow: hidden;" version="1.1" xmlns="http://www.w3.org/2000/svg" xmlns:xlink="http://www.w3.org/1999/xlink">
<defs>
<symbol id="icon-phone" viewBox="0 0 32 32">
<path fill="#cac8c8" style="fill: var(--color1, #cac8c8)" d="M9.143 3.26c1.523 1.111 2.709 2.627 3.724 4.078l0.589 0.858 0.556 0.82c0.571 0.836 0.435 1.976-0.341 2.648l-2.601 1.932c-0.258 0.192-0.344 0.54-0.189 0.821 0.589 1.071 1.637 2.666 2.837 3.866 1.201 1.201 2.871 2.317 4.016 2.972 0.297 0.17 0.67 0.071 0.858-0.215l1.692-2.578c0.649-0.864 1.861-1.052 2.742-0.443l0.885 0.612c1.651 1.147 3.427 2.449 4.784 4.186 0.455 0.583 0.523 1.346 0.251 1.98-1.116 2.603-3.939 4.821-6.876 4.713l-0.401-0.022-0.311-0.027-0.344-0.038-0.375-0.052-0.406-0.067c-0.070-0.013-0.141-0.026-0.214-0.040l-0.448-0.094c-0.077-0.017-0.155-0.035-0.234-0.054l-0.488-0.125-0.513-0.148-0.536-0.172c-2.462-0.834-5.585-2.474-8.791-5.679s-4.845-6.329-5.679-8.791l-0.172-0.536-0.148-0.513-0.125-0.488-0.104-0.462c-0.031-0.15-0.059-0.294-0.085-0.435l-0.067-0.406-0.052-0.375-0.038-0.344-0.027-0.311-0.022-0.401c-0.108-2.927 2.135-5.772 4.726-6.882 0.608-0.261 1.345-0.213 1.927 0.212zM19.989 8.053l0.155 0.018c0.971 0.171 1.862 0.645 2.547 1.354s1.127 1.616 1.264 2.592c0.103 0.729-0.406 1.403-1.135 1.506-0.677 0.095-1.307-0.336-1.475-0.982l-0.030-0.153c-0.059-0.418-0.249-0.807-0.542-1.111-0.245-0.253-0.551-0.436-0.887-0.533l-0.205-0.047c-0.725-0.128-1.209-0.819-1.081-1.545 0.119-0.673 0.724-1.139 1.39-1.1v0zM20 4c1.051 0 2.091 0.207 3.061 0.609s1.853 0.991 2.595 1.734c0.743 0.743 1.332 1.625 1.734 2.595s0.609 2.011 0.609 3.061c0 0.736-0.597 1.333-1.333 1.333-0.684 0-1.247-0.515-1.324-1.178l-0.009-0.155c0-0.7-0.138-1.394-0.406-2.041s-0.661-1.235-1.156-1.73c-0.495-0.495-1.083-0.888-1.73-1.156-0.539-0.223-1.111-0.356-1.692-0.394l-0.349-0.011c-0.736 0-1.333-0.597-1.333-1.333s0.597-1.333 1.333-1.333z"></path>
</symbol>
<symbol id="icon-email" viewBox="0 0 32 32">
<path fill="#cac8c8" d="M5.333 5.333c-0.751 0-1.408 0.387-1.788 0.971l11.7 11.7c0.431 0.431 1.077 0.431 1.508 0l11.7-11.7c-0.38-0.584-1.036-0.971-1.788-0.971h-21.333zM3.2 8.975v15.558c0 1.182 0.951 2.133 2.133 2.133h21.333c1.182 0 2.133-0.951 2.133-2.133v-15.558l-10.538 10.537c-1.241 1.241-3.284 1.241-4.525 0l-10.537-10.537z"></path>
</symbol>
<symbol id="icon-linkedin" viewBox="0 0 32 32">
<path fill="#cac8c8" d="M7.304 10.621v20.739h-6.906v-20.739zM7.743 4.219c0.001 0.037 0.003 0.081 0.003 0.125 0 0.959-0.407 1.821-1.057 2.426l-0.003 0.001c-0.698 0.637-1.631 1.028-2.656 1.028-0.063 0-0.127-0.001-0.189-0.004h-0.033c-0.052 0.003-0.114 0.004-0.175 0.004-1.004 0-1.915-0.392-2.592-1.029l0.001 0.001c-0.645-0.625-1.044-1.498-1.044-2.464 0-0.031 0-0.061 0.001-0.093v0.005c-0.001-0.027-0.001-0.058-0.001-0.088 0-0.975 0.415-1.853 1.076-2.469l0.003-0.001c0.696-0.634 1.627-1.023 2.647-1.023 0.059 0 0.116 0.001 0.175 0.004h-0.008c0.055-0.003 0.118-0.004 0.183-0.004 1.005 0 1.92 0.388 2.604 1.021l-0.003-0.003c0.659 0.636 1.069 1.527 1.069 2.514v0.051zM32.142 19.476v11.884h-6.884v-11.091c0.006-0.101 0.009-0.219 0.009-0.337 0-1.147-0.319-2.218-0.873-3.132l0.015 0.027c-0.547-0.763-1.43-1.253-2.427-1.253-0.077 0-0.154 0.003-0.23 0.009h0.010c-0.035-0.001-0.074-0.003-0.114-0.003-0.794 0-1.523 0.273-2.1 0.73l0.008-0.005c-0.58 0.47-1.034 1.070-1.321 1.76l-0.010 0.029c-0.148 0.454-0.233 0.977-0.233 1.519 0 0.061 0.001 0.123 0.004 0.184v-0.009 11.574h-6.884q0.042-8.349 0.042-13.54t-0.020-6.194l-0.020-1.005h6.884v3.013h-0.042c0.274-0.442 0.557-0.824 0.868-1.183l-0.010 0.012c0.36-0.396 0.746-0.753 1.162-1.073l0.020-0.015c0.517-0.398 1.124-0.71 1.782-0.901l0.038-0.009c0.689-0.206 1.481-0.325 2.3-0.325h0.096c0.091-0.004 0.197-0.006 0.303-0.006 2.152 0 4.090 0.914 5.448 2.376l0.004 0.005q2.179 2.376 2.179 6.958z"></path>
</symbol>
<symbol id="icon-telegram" viewBox="0 0 32 32">
<path fill="#cac8c8" d="M29.919 6.163l-4.225 19.925c-0.319 1.406-1.15 1.756-2.331 1.094l-6.438-4.744-3.106 2.988c-0.344 0.344-0.631 0.631-1.294 0.631l0.463-6.556 11.931-10.781c0.519-0.462-0.113-0.719-0.806-0.256l-14.75 9.288-6.35-1.988c-1.381-0.431-1.406-1.381 0.288-2.044l24.837-9.569c1.15-0.431 2.156 0.256 1.781 2.013z"></path>
</symbol>
<symbol id="icon-github" viewBox="0 0 32 32">
<path fill="#cac8c8" style="fill: var(--color1, #cac8c8)" d="M8.42 8.235c-0.333-0.851-0.32-1.822-0.171-2.712 1.011 0.31 1.986 0.785 2.827 1.428 0.372 0.284 0.861 0.377 1.318 0.239 1.106-0.335 2.324-0.522 3.607-0.522 1.282 0 2.498 0.187 3.604 0.521 0.456 0.138 0.946 0.045 1.317-0.239 0.841-0.642 1.815-1.117 2.826-1.427 0.148 0.889 0.161 1.86-0.17 2.71-0.2 0.512-0.1 1.101 0.277 1.52 0.965 1.071 1.48 2.303 1.48 3.582 0 2.819-2.626 5.583-6.845 6.424-1.057 0.211-1.469 1.539-0.66 2.301 0.518 0.488 0.839 1.176 0.839 1.941v4c0 0.736 0.597 1.333 1.333 1.333s1.333-0.597 1.333-1.333v-4c0-0.76-0.159-1.483-0.446-2.137 4.023-1.397 7.112-4.54 7.112-8.529 0-1.797-0.646-3.447-1.716-4.829 0.28-1.093 0.255-2.195 0.149-3.041-0.095-0.757-0.228-1.749-0.761-2.341-0.793-0.878-2.107-0.361-3.040-0.042-0.825 0.28-1.845 0.727-2.833 1.393-1.197-0.308-2.474-0.474-3.798-0.474-1.325 0-2.604 0.166-3.802 0.475-0.988-0.666-2.009-1.114-2.833-1.394-0.933-0.319-2.248-0.836-3.041 0.042-0.543 0.602-0.658 1.516-0.755 2.291l-0.006 0.051c-0.106 0.846-0.131 1.95 0.15 3.044-1.068 1.381-1.713 3.030-1.713 4.825 0 3.99 3.089 7.133 7.112 8.529-0.283 0.647-0.442 1.361-0.446 2.111l-0.224 0.045c-0.956 0.132-1.568 0.014-1.985-0.162-1.013-0.43-1.535-1.511-2.174-2.338-0.397-0.514-0.975-1.154-1.863-1.45-0.699-0.233-1.454 0.145-1.687 0.843s0.145 1.454 0.843 1.687c0.745 0.248 1.259 1.523 1.731 2.089 0.497 0.597 1.159 1.221 2.108 1.624 0.909 0.385 1.976 0.523 3.25 0.367v1.322c0 0.736 0.597 1.333 1.333 1.333s1.333-0.597 1.333-1.333v-4c0-0.765 0.321-1.453 0.839-1.941 0.809-0.762 0.396-2.090-0.66-2.301-4.219-0.842-6.845-3.605-6.845-6.424 0-1.278 0.514-2.508 1.477-3.579 0.377-0.418 0.476-1.008 0.276-1.52z"></path>
</symbol>
</defs>
</svg>
